# xmcd CD database file
# Copyright (C) 1996 Ti Kan
#
# Track frame offsets:
#  150
#  18850
#  31388
#  57143
#  68850
#  86638
#  102593
#  123863
#  140783
#  157638
#  182105
#  200313
#  213913
#  240563
#  265388
#  287603
#  299208
#  314495
#
# Disc length: 4391 seconds
#
# Revision: 1
# Processed by: cddbd v1.4b41PL1 Copyright (c) Steve Scherf et al.
# Submitted via: CDWizzard Release:4.13
#
DISCID=0c112512
DTITLE=Kander and Ebb - And The World Goes Round
DYEAR=1900
DGENRE=
TTITLE0=The World Goes 'Round
TTITLE1=Coffee In A Cardboard Cup
TTITLE2=Colored Lights
TTITLE3=Sara Lee
TTITLE4=Arthur In The Afternoon
TTITLE5=The World Goes 'Round (reprise)/My Coloring Book
TTITLE6=I Don't Remember You/Sometimes a Day Goes By
TTITLE7=All That Jazz
TTITLE8=Mr. Cellophane
TTITLE9=There Goes the Ball Game/How Lucky Can You Get
TTITLE10=Marry Me/A Quiet Thing
TTITLE11=Kiss of the Spiderwoman
TTITLE12=The Grass is Always Greener
TTITLE13=The World Goes 'Round (reprise)/We Can Make It/Maybe This Time
TTITLE14=Isn't This Better?/Trio
TTITLE15=The World Goes 'Round (reprise)/Money, Money
TTITLE16=Cabaret
TTITLE17=Theme from 'New York, New York'/The World Goes 'Round (reprise)
EXTD=
EXTT0=
EXTT1=
EXTT2=
EXTT3=
EXTT4=
EXTT5=
EXTT6=
EXTT7=
EXTT8=
EXTT9=
EXTT10=
EXTT11=
EXTT12=
EXTT13=
EXTT14=
EXTT15=
EXTT16=
EXTT17=
PLAYORDER=
